<?xml version="1.0" encoding="UTF-8"?>
<svg xmlns="http://www.w3.org/2000/svg" version="1.1" viewBox="0 0 1024 1024">
  <!-- Generator: Adobe Illustrator 30.0.0, SVG Export Plug-In . SVG Version: 2.1.1 Build 123)  -->
  <defs>
    <style>
      .st0 {
        fill: #9df993;
      }

      .st1 {
        fill: #3ee8ed;
      }

      .st2 {
        fill: #a1f996;
      }

      .st3 {
        isolation: isolate;
      }

      .st4 {
        fill: #9dfa93;
      }

      .st5 {
        fill: #45eaf1;
      }

      .st6 {
        mix-blend-mode: screen;
      }

      .st7 {
        fill: #3ce7ee;
      }

      .st8 {
        fill: #9cf993;
      }

      .st9 {
        fill: #9ff993;
      }

      .st10 {
        fill: #a0f994;
      }

      .st11 {
        fill: #9ef993;
      }
    </style>
  </defs>
  <g class="st3">
    <g id="_图层_1" data-name="图层_1">
      <g class="st6">
        <g>
          <path class="st8" d="M545.27,271.18l-2.44,36.06c-1.65,2.35-8.15-.22-11.06-.15-4.37.11-14.08.92-18.06,2.03-1.93.54-6.51,2.74-7.96,4.04-9.72,8.66-7.58,34.13-8.5,46.5-2.75,37.15-6.19,74.34-7.99,111.51-14.4.82-27.61-6.57-34.85-18.74l8.97-131.64c.41-22.88,26.76-49.62,49.38-49.62h32.5Z"/>
          <path class="st1" d="M523.71,327.19l-12,2-.05-3.47,12.12-1.95.93-4.58h1.99s0,5.01,0,5.01l22.09,2.99-3-7.99c5.61-2.36,6.38,7.9,8.79,8.98l70.54,12.01-2.31-3.19-66.97-38.32c-3.58-8.63,2.94-2.18,6.35-.32,23.85,13.01,47.13,27.42,71.3,39.6,13.22-8.26,23.22,9.07,9.21,16.23l-.57,122.62c11.7,3.73,8.77,20.1-4.4,17.65-1.43-.27-2.41-1.57-3.34-1.77-2.77-.6-22.19,12-26.25,14.45-25.01,15.1-50.11,31.01-74.15,47.23,3.05,8.86-9.33,15.48-15.34,8.68-2.74-3.1-1.32-5.67-2.16-8.6-.94-3.26-19.73-11.01-21.41-13.74-.77-1.24-1.24-4.91,1-4.02l20.6,12.03c.34-1.76-.46-2.9-1.16-4.35-4.35-9-14.29-19.28-17.96-28.23-1.57-3.82-1.04-7.1,2.36-3.34,5.62,6.2,12.66,20.66,17.75,28.41,1.43,2.17,2.87,5.1,5.04,6.51v-26.1s-2.99-.98-4.48-3.46c-.96-1.6-.89-4.33-1.92-5.08-1.16-.85-6.58-1.01-8.55-1.47-1.52-.36-1.75.68-1.49-1.97,3.51-1.79,8.07-.27,11.29-1.22.37-.11,6.28-3.75,6.51-4.06.2-.28.6-5.22,3.19-2.73.18.17-.35,1.95.2,2.73.71.99,5.79,1.79,6.38,5.33l23.13-6.35,24.85-39.65c-1.46-3.64-3.22-5.94-2.04-10.12l-13.35-7.1-.17-3.83c1.01-1.18,12.58,6.73,14.57,7.01,3.03.42,6.01-2.27,9.19-2.24l12.28-26.28-20.1-38.46-24.95,11.96c-.33-2.3-.03-2.56,1.64-3.85,5.39-4.14,14.19-7.93,20.35-11.16l-26.49-46.99-25.07-4.99v34.56h-1.48c-.48-.63-2.52-2.19-2.52-2.5v-32.49ZM631.27,345.64l-73.99-13.01,25.59,43.92,46.77-27.05,1.63-3.86ZM629.71,340.18h-3v1h3v-1ZM634.27,351.63l-49.99,28.01,20.01,36.97,29.98-64.99ZM638.71,476.62v-121l-6.86,12.64-24.07,51.86,30.93,56.5ZM635.27,479.62l-29.49-54.99c-1.97.97-11.79,22.62-11.34,25.24.5,2.9,4.15,6.28,3,10.59,5.33,1.1,35.82,21,37.83,19.15ZM584.47,465.82c-6.69,12.52-16.45,23.55-21.71,36.77,7.82-3.83,68.55-14.04,69.51-17.49.3-1.07,0-2.34-1-2.99l-34.92-19.03-11.88,2.73ZM628.27,490.63l-68.38,16.11-4.03,4.97-23.58,38.91,95.98-59.99ZM527.71,521.62v26l3.07-.63,23.91-38.89-19.81,4.68c1.79,6.23-6.82,8.32-7.17,8.83ZM519.71,550.18v-2h-1v2h1Z"/>
          <path class="st7" d="M399.71,476.62l9.08-19.03,2.47-1.97c4.11,3.88-8.5,18.82-7.98,23.99l16.49-7c.88,0,.67,2.06.48,2.48-.67,1.56-11.44,6.84-13.86,7.64l-.05,2.81,32.98,8.6c-.42,1.3,1.28,3.61-1.53,3.49-3.77-.17-23.58-6.87-24.5-6.01-.45,2.06,1.05,2.27,2.27,3.22,6.36,4.97,15.75,8.97,22.74,13.26,1.07.71,2.15,5.23-.47,4.48l-32.52-19.57c-2.1-.64-3.55,1.28-5.58,1.56-12.85,1.79-16.01-12.75-5-17.96v-121.79c-4.08-2.06-6.38-3.43-6.52-8.7-.3-11.08,9.27-10.78,17.33-7.67,14.99-7.18,30.3-20.31,45.04-27.05.88-.4,4.19-2.17,3.73.72-.41,2.57-3.24,3.61-5.1,4.9-11.36,7.89-25.76,14.76-37.91,21.6-.39,2.58.4,2.07,2.48,1.98,11.32-.52,24.69-5.24,36.03-6,2.59-.18,1.42,2.07,1.37,3.89l-44.88,7.13,1.03,3.46,31.5,18.5-1.05,3.03c-4.9-1.08-32.5-19.84-34.47-18,1.1,5.5,19.37,37.67,16.99,39.99l-3.07-.62-17.49-36.38v121Z"/>
          <path class="st4" d="M447.27,378.63l-1.04,23.45c-29.38,40.7,9.45,94.29,57.57,78.57,44.29-14.46,47.19-79.24,3.63-96.19l.84-16.84c18.87,4.06,35.1,20.57,42.18,38.32,14.73,36.98-4.66,80.04-43.19,91.17-66.62,19.24-116.25-59.29-70.5-110.5,1.4-1.57,8.79-9.75,10.51-7.98Z"/>
          <path class="st0" d="M430.77,577.18c6.52-1.08,13.81-8.46,15.02-14.98l4.49-59.01c11.44,3.42,22.73,8.77,35,7.99l-3.02,52.49c.19,23.71-25.91,51.51-49.49,51.51h-29.5l2-38c7.75-.9,18.11,1.22,25.5,0Z"/>
          <path class="st5" d="M523.71,427.12c-.19-.56-5.72-3.47-6.51-3.48-1.64-.01-9.06,6.08-12.02,6.95-2.49.73-1.73-3.1-.48-4.49,1.16-1.28,10.78-5.02,11.05-6.15.25-1.05.19-6.37-.25-7.14-1.32-2.29-12.09-3.67-9.78-9.2.97-1.13,8.74,4.77,10.31,5.28,2.03.65,3.72-.53,5.22.6,5.93,4.44,6.57,27.35,4.75,33.95-.49,1.78.32,2.58-2.29,2.17v-18.5Z"/>
        </g>
        <g>
          <polygon class="st9" points="427.71 675.18 441.23 676.16 469.7 724.18 497.22 676.19 510.71 675.18 510.71 751.18 496.71 751.18 496.71 701.18 471.23 743.27 464.66 741.74 441.71 703.18 441.71 751.18 427.71 751.18 427.71 675.18"/>
          <polygon class="st2" points="616.71 675.18 616.71 712.18 652.21 675.18 667.71 675.18 638.67 708.68 670.71 751.18 654.21 751.18 628.2 719.19 616.71 729.68 616.71 751.18 601.71 751.18 601.71 675.18 616.71 675.18"/>
          <polygon class="st10" points="587.71 675.18 587.5 684.47 544.71 738.18 589.71 738.18 589.71 751.18 524.71 751.18 523.99 741.79 567.71 688.18 525.71 688.18 525.71 675.18 587.71 675.18"/>
          <path class="st11" d="M407.22,691.56c-10.82-2.13-19.38-7.65-30.92-3.41-8.15,2.99-10.08,11.44-1.92,15.87,11.24,6.11,32.98,4.04,38.21,18.79,5.97,16.82-8.09,28.4-23.83,29.8-12.74,1.13-24.33-2.3-35.47-8.03l4.04-11.91c5.32,1.31,9.47,4.71,15.17,6.23,6.92,1.85,20.43,3.35,25.26-3.3,9.83-13.53-22.64-16.36-30.17-19.79-23.43-10.65-12.92-38.36,10.3-41.08,5.98-.7,28.58.53,31.95,5.89,1.6,2.54-2.84,7.81-2.61,10.94Z"/>
        </g>
      </g>
    </g>
  </g>
</svg>